<mxfile host="65bd71144e">
    <diagram name="PÃ¡gina-1" id="jGOk_uUfHucnPTqx28uL">
        <mxGraphModel dx="771" dy="887" grid="1" gridSize="10" guides="1" tooltips="1" connect="1" arrows="1" fold="1" page="1" pageScale="1" pageWidth="827" pageHeight="1169" math="0" shadow="0">
            <root>
                <mxCell id="0"/>
                <mxCell id="1" parent="0"/>
                <mxCell id="2" value="Carta" style="swimlane" vertex="1" parent="1">
                    <mxGeometry x="140" y="660" width="120" height="80" as="geometry"/>
                </mxCell>
                <mxCell id="3" value="- palo: string" vertex="1" parent="2">
                    <mxGeometry y="30" width="120" height="20" as="geometry"/>
                </mxCell>
                <mxCell id="4" value="- valor: string" vertex="1" parent="2">
                    <mxGeometry y="50" width="120" height="20" as="geometry"/>
                </mxCell>
                <mxCell id="5" value="+ mostrar(): void" vertex="1" parent="2">
                    <mxGeometry y="70" width="120" height="20" as="geometry"/>
                </mxCell>
                <mxCell id="6" value="Baraja" style="swimlane" vertex="1" parent="1">
                    <mxGeometry x="290" y="660" width="120" height="80" as="geometry"/>
                </mxCell>
                <mxCell id="7" value="- cartas: String" vertex="1" parent="6">
                    <mxGeometry y="30" width="120" height="20" as="geometry"/>
                </mxCell>
                <mxCell id="8" value="+ barajar(): void" vertex="1" parent="6">
                    <mxGeometry y="50" width="120" height="20" as="geometry"/>
                </mxCell>
                <mxCell id="9" value="+ repartir(): Carta" vertex="1" parent="6">
                    <mxGeometry y="70" width="120" height="20" as="geometry"/>
                </mxCell>
                <mxCell id="10" edge="1" parent="1" source="6" target="2">
                    <mxGeometry relative="1" as="geometry"/>
                </mxCell>
                <mxCell id="11" value="Luz" style="swimlane" vertex="1" parent="1">
                    <mxGeometry x="824" y="605" width="120" height="80" as="geometry"/>
                </mxCell>
                <mxCell id="12" value="- estado: string" vertex="1" parent="11">
                    <mxGeometry y="30" width="120" height="20" as="geometry"/>
                </mxCell>
                <mxCell id="13" value="+ cambiarEstado(): void" vertex="1" parent="11">
                    <mxGeometry y="50" width="120" height="20" as="geometry"/>
                </mxCell>
                <mxCell id="14" value="Cliente" style="swimlane" vertex="1" parent="1">
                    <mxGeometry x="404" y="858" width="120" height="80" as="geometry"/>
                </mxCell>
                <mxCell id="15" value="- ID: int" vertex="1" parent="14">
                    <mxGeometry y="30" width="120" height="20" as="geometry"/>
                </mxCell>
                <mxCell id="16" value="- nombre: string" vertex="1" parent="14">
                    <mxGeometry y="50" width="120" height="20" as="geometry"/>
                </mxCell>
                <mxCell id="17" value="+ verificarIdentidad(): bool" vertex="1" parent="14">
                    <mxGeometry y="70" width="120" height="20" as="geometry"/>
                </mxCell>
                <mxCell id="18" value="Cuenta" style="swimlane" vertex="1" parent="1">
                    <mxGeometry x="604" y="861" width="120" height="80" as="geometry"/>
                </mxCell>
                <mxCell id="19" value="- saldo: float" vertex="1" parent="18">
                    <mxGeometry y="30" width="120" height="20" as="geometry"/>
                </mxCell>
                <mxCell id="20" value="- propietario: Cliente" vertex="1" parent="18">
                    <mxGeometry y="50" width="120" height="20" as="geometry"/>
                </mxCell>
                <mxCell id="21" value="+ depositar(monto: float): void" vertex="1" parent="18">
                    <mxGeometry y="70" width="120" height="20" as="geometry"/>
                </mxCell>
                <mxCell id="22" value="+ retirar(monto: float): bool" vertex="1" parent="18">
                    <mxGeometry y="90" width="120" height="20" as="geometry"/>
                </mxCell>
                <mxCell id="23" edge="1" parent="1" source="14" target="18">
                    <mxGeometry relative="1" as="geometry"/>
                </mxCell>
                <mxCell id="24" value="OperacionesAritmeticas" style="swimlane;fontStyle=1;" vertex="1" parent="1">
                    <mxGeometry x="488" y="551" width="200" height="207" as="geometry"/>
                </mxCell>
                <mxCell id="25" value="-sumar(): double" style="text" vertex="1" parent="24">
                    <mxGeometry y="60" width="200" height="30" as="geometry"/>
                </mxCell>
                <mxCell id="26" value="-restar(): double" style="text" vertex="1" parent="24">
                    <mxGeometry y="90" width="200" height="30" as="geometry"/>
                </mxCell>
                <mxCell id="27" value="-multiplicar(): double" style="text" vertex="1" parent="24">
                    <mxGeometry y="120" width="200" height="30" as="geometry"/>
                </mxCell>
                <mxCell id="28" value="-dividir(): double" style="text" vertex="1" parent="24">
                    <mxGeometry y="150" width="200" height="57" as="geometry"/>
                </mxCell>
                <mxCell id="29" value="-residuo(): double" style="text" vertex="1" parent="24">
                    <mxGeometry y="180" width="200" height="30" as="geometry"/>
                </mxCell>
                <mxCell id="30" value="Empleado" style="swimlane;fontStyle=1;" vertex="1" parent="1">
                    <mxGeometry x="488" y="240" width="200" height="247" as="geometry"/>
                </mxCell>
                <mxCell id="31" value="- ID: int" style="text" vertex="1" parent="30">
                    <mxGeometry y="30" width="200" height="30" as="geometry"/>
                </mxCell>
                <mxCell id="32" value="- salario: double" style="text" vertex="1" parent="30">
                    <mxGeometry y="60" width="200" height="30" as="geometry"/>
                </mxCell>
                <mxCell id="33" value="- maxHorasTrabajo: int" style="text" vertex="1" parent="30">
                    <mxGeometry y="90" width="200" height="30" as="geometry"/>
                </mxCell>
                <mxCell id="34" value="+ ingresarDatos(): void" style="text" vertex="1" parent="30">
                    <mxGeometry y="120" width="200" height="30" as="geometry"/>
                </mxCell>
                <mxCell id="35" value="+ visualizarDatos(): void" style="text" vertex="1" parent="30">
                    <mxGeometry y="150" width="200" height="30" as="geometry"/>
                </mxCell>
                <mxCell id="36" value="+ altaSeguridadSocial(): void" style="text" vertex="1" parent="30">
                    <mxGeometry y="180" width="200" height="30" as="geometry"/>
                </mxCell>
                <mxCell id="37" value="+ bajaSeguridadSocial(): void" style="text" vertex="1" parent="30">
                    <mxGeometry y="210" width="200" height="30" as="geometry"/>
                </mxCell>
            </root>
        </mxGraphModel>
    </diagram>
</mxfile>